<?xml version="1.0" encoding="UTF-8" standalone="no"?><!DOCTYPE svg PUBLIC "-//W3C//DTD SVG 1.1//EN" "http://www.w3.org/Graphics/SVG/1.1/DTD/svg11.dtd"><svg width="100%" height="100%" viewBox="0 0 732 551" version="1.1" xmlns="http://www.w3.org/2000/svg" xmlnsXlink="http://www.w3.org/1999/xlink" xmlSpace="preserve" xmlnsSerif="http://www.serif.com/" style="fill-rule:evenodd;clip-rule:evenodd;stroke-linejoin:round;stroke-miterlimit:2;"><circle cx="317.682" cy="132.627" r="46.021" style="fill:#ff6884;"/><g><path d="M0,334.134c0,0.66 0.53,1.19 1.19,1.19l729.29,-0c0.66,-0 1.19,-0.53 1.19,-1.19c0,-0.66 -0.53,-1.19 -1.19,-1.19l-729.29,-0c-0.66,-0 -1.19,0.53 -1.19,1.19Z" style="fill:#3f3d56;fill-rule:nonzero;"/><g><path d="M466.985,81.606l3.826,48.951l55.457,-23.164l-31.283,-49.787l-28,24Z" style="fill:#a0616a;fill-rule:nonzero;"/><circle cx="465.323" cy="55.181" r="41.339" style="fill:#a0616a;"/><path d="M387.985,440.606l7,62.787l-49,-6.787l16,-58l26,2Z" style="fill:#a0616a;fill-rule:nonzero;"/><path d="M578.985,449.606l7,62.787l-49,-6.787l16,-58l26,2Z" style="fill:#a0616a;fill-rule:nonzero;"/><path d="M462.485,260.106c-0.669,-0 -54.146,2.685 -89.478,4.463c-16.722,0.841 -29.452,15.315 -28.154,32.009l12.632,162.528l36,1l0.878,-131l71.122,4l-3,-73Z" style="fill:#2f2e41;fill-rule:nonzero;"/><path d="M619.485,259.106c-0,-0 9,69 2,76c-7,7 -226.5,-5.5 -226.5,-5.5c-0,-0 48.153,-69.537 56.826,-71.519c8.674,-1.981 146.674,-8.981 146.674,-8.981l21,10Z" style="fill:#2f2e41;fill-rule:nonzero;"/><path id="uuid-395a52e4-5c72-4314-a9bf-6720c6920e4c-597" d="M335.127,172.233c-8.359,-11.69 -9.103,-25.48 -1.662,-30.798c7.441,-5.319 20.247,-0.152 28.607,11.544c3.404,4.626 5.65,10 6.551,15.672l34.792,49.982l-19.8,13.708l-35.774,-48.834c-5.078,-2.689 -9.437,-6.554 -12.714,-11.274l-0,0Z" style="fill:#a0616a;fill-rule:nonzero;"/><path id="uuid-2bcb0f29-4cb0-4836-b3e1-c42200070018-598" d="M465.674,331.017c-12.747,6.637 -26.505,5.44 -30.728,-2.673c-4.222,-8.113 2.688,-20.068 15.441,-26.706c5.058,-2.721 10.694,-4.192 16.436,-4.289l54.366,-27.441l10.797,21.526l-53.368,28.575c-3.373,4.65 -7.812,8.425 -12.944,11.008l-0,-0Z" style="fill:#a0616a;fill-rule:nonzero;"/><path d="M464.985,112.606l51,-21l96,148c-0,-0 -67,15 -90,18c-23,3 -49,-9 -49,-9l-8,-136Z" style="fill:#e6e6e6;fill-rule:nonzero;"/><path d="M526.985,137.606l-18.5,-57.709l24,18.209c-0,-0 68,45 68,64c-0,19 21,77 21,77c-0,-0 23.5,19.5 15.5,37.5c-8,18 10.5,15.5 12.5,28.5c2,13 -28.5,30.5 -28.5,30.5c-0,-0 -7.5,-73.5 -31.5,-73.5c-24,-0 -62.5,-124.5 -62.5,-124.5Z" style="fill:#3f3d56;fill-rule:nonzero;"/><path d="M468.568,111.13l-25.083,9.976c-0,-0 4,70 8,76c4,6 18,38 18,38l-0,10.429c-0,0 -28,8.571 -27,13.571c1,5 66,19 66,19c-0,-0 -13,-40 -21,-53c-8,-13 -18.917,-113.976 -18.917,-113.976Z" style="fill:#3f3d56;fill-rule:nonzero;"/><path d="M527.485,97.106c-0,-0 56,-3 68,27c12,30 22,128 22,128l-122,66.374l-21,-32.374l82,-64l-29,-125Z" style="fill:#3f3d56;fill-rule:nonzero;"/><path d="M452.485,121.106c-0,-0 -29,-4 -34,30c-5,34 -1.823,38.5 -1.823,38.5l-8.177,19.5l-27,-30l-26,17c-0,-0 47,76 66,74c19,-2 47,-57 47,-57l-16,-92Z" style="fill:#3f3d56;fill-rule:nonzero;"/><path d="M597.323,270.145l-14.838,209.961l-38.5,-1.5c-0,-0 -8.5,-198.5 -8.5,-201.5c-0,-3 4,-20 29,-21c25,-1 32.838,14.039 32.838,14.039Z" style="fill:#2f2e41;fill-rule:nonzero;"/><path d="M541.485,484.106c-0,-0 20,-6 23,-2c3,4 20,6 20,6l5,49c-0,-0 -14,10 -16,12c-2,2 -55,4 -56,-8c-1,-12 14,-27 14,-27l10,-30Z" style="fill:#2f2e41;fill-rule:nonzero;"/><path d="M394.485,470.106c-0,-0 6,-5 8,9c2,14 9,37 -1,40c-10,3 -110,4 -110,-5l-0,-9l9,-7l18.004,-2.869c-0,-0 34.996,-32.131 38.996,-32.131c4,-0 17,13 17,13l20,-6Z" style="fill:#2f2e41;fill-rule:nonzero;"/><path d="M505.985,77.606c-0,-0 -20,-24 -28,-22c-8,2 -3,5 -3,5l-20,-22c-0,-0 -16,-6 -31,13c-0,-0 -9,-16 -0,-25c9,-9 12,-8 14,-13c2,-5 16,-9 16,-9c-0,-0 -0.804,-7.197 3.598,-3.598c4.402,3.598 15.394,3.598 15.394,3.598c-0,-0 0.063,-4 4.535,-0c4.473,4 9.473,2 9.473,2c-0,-0 -0,6.921 3.5,6.961c3.5,0.039 9.5,-4.961 10.5,-0.961c1,4 8,6 9,18c1,12 -4,47 -4,47Z" style="fill:#2f2e41;fill-rule:nonzero;"/></g></g><g><path d="M302.618,124.749c0,-9.678 -7.857,-17.535 -17.534,-17.535l-162.819,0c-9.677,0 -17.534,7.857 -17.534,17.535l0,-0c0,9.677 7.857,17.534 17.534,17.534l162.819,-0c9.677,-0 17.534,-7.857 17.534,-17.534l0,-0Z" style="fill:#3f3d56;"/><rect x="125.397" y="30.606" width="159.896" height="175.343" style="fill:#fff;"/><path d="M286.293,206.949l-161.896,-0l-0,-177.343l161.896,-0l0,177.343Zm-159.896,-2l157.896,-0l0,-173.343l-157.896,-0l-0,173.343Z" style="fill-rule:nonzero;"/><path d="M318.9,156.06c0,-12.903 -10.476,-23.379 -23.379,-23.379l-180.353,-0c-12.903,-0 -23.379,10.476 -23.379,23.379l0,-0c0,12.903 10.476,23.379 23.379,23.379l180.353,-0c12.903,-0 23.379,-10.476 23.379,-23.379l0,-0Z" style="fill:#3f3d56;"/><ellipse cx="332.26" cy="157.521" rx="4.175" ry="13.986" style="fill:#3f3d56;"/><ellipse cx="73.42" cy="156.269" rx="5.01" ry="13.568" style="fill:#3f3d56;"/><rect x="74.672" y="154.39" width="28.806" height="2.922" style="fill:#3f3d56;"/><rect x="306.376" y="155.642" width="23.379" height="4.175" style="fill:#3f3d56;"/><path d="M302.334,337.957l-172.895,-0c-13.669,-0 -24.79,-11.122 -24.79,-24.79l-0,-123.841c-0,-13.669 11.121,-24.79 24.79,-24.79l172.895,-0c13.669,-0 24.789,11.121 24.789,24.79l0,123.841c0,13.668 -11.12,24.79 -24.789,24.79Z" style="fill:#3f3d56;fill-rule:nonzero;"/><circle cx="123.518" cy="258.343" r="5.427" style="fill:#01ff00;"/><circle cx="131.033" cy="275.878" r="5.427" style="fill:#01ff00;"/><circle cx="136.46" cy="291.742" r="5.427" style="fill:#01ff00;"/><circle cx="146.062" cy="308.024" r="5.427" style="fill:#01ff00;"/><circle cx="161.926" cy="308.024" r="5.427" style="fill:#01ff00;"/><circle cx="177.791" cy="308.024" r="5.427" style="fill:#01ff00;"/><circle cx="193.655" cy="308.024" r="5.427" style="fill:#01ff00;"/><circle cx="209.52" cy="308.024" r="5.427" style="fill:#01ff00;"/><circle cx="225.384" cy="308.024" r="5.427" style="fill:#01ff00;"/><circle cx="241.248" cy="308.024" r="5.427" style="fill:#01ff00;"/><circle cx="257.113" cy="308.024" r="5.427" style="fill:#01ff00;"/><circle cx="272.977" cy="308.024" r="5.427" style="fill:#01ff00;"/><circle cx="288.841" cy="308.024" r="5.427" style="fill:#01ff00;"/><circle cx="152.617" cy="291.742" r="5.427" style="fill:#01ff00;"/><circle cx="168.773" cy="291.742" r="5.427" style="fill:#01ff00;"/><circle cx="184.93" cy="291.742" r="5.427" style="fill:#01ff00;"/><circle cx="201.086" cy="291.742" r="5.427" style="fill:#01ff00;"/><circle cx="217.243" cy="291.742" r="5.427" style="fill:#01ff00;"/><circle cx="233.4" cy="291.742" r="5.427" style="fill:#01ff00;"/><circle cx="249.556" cy="291.742" r="5.427" style="fill:#01ff00;"/><circle cx="265.713" cy="291.742" r="5.427" style="fill:#01ff00;"/><circle cx="281.869" cy="291.742" r="5.427" style="fill:#01ff00;"/><circle cx="298.026" cy="291.742" r="5.427" style="fill:#01ff00;"/><circle cx="147.314" cy="275.878" r="5.427" style="fill:#01ff00;"/><circle cx="163.596" cy="275.878" r="5.427" style="fill:#01ff00;"/><circle cx="179.878" cy="275.878" r="5.427" style="fill:#01ff00;"/><circle cx="196.16" cy="275.878" r="5.427" style="fill:#01ff00;"/><circle cx="212.442" cy="275.878" r="5.427" style="fill:#01ff00;"/><circle cx="228.724" cy="275.878" r="5.427" style="fill:#01ff00;"/><circle cx="245.006" cy="275.878" r="5.427" style="fill:#01ff00;"/><circle cx="261.287" cy="275.878" r="5.427" style="fill:#01ff00;"/><circle cx="277.569" cy="275.878" r="5.427" style="fill:#01ff00;"/><circle cx="293.851" cy="275.878" r="5.427" style="fill:#01ff00;"/><circle cx="310.133" cy="275.878" r="5.427" style="fill:#01ff00;"/><circle cx="139.8" cy="258.343" r="5.427" style="fill:#01ff00;"/><circle cx="156.082" cy="258.343" r="5.427" style="fill:#01ff00;"/><circle cx="172.363" cy="258.343" r="5.427" style="fill:#01ff00;"/><circle cx="188.645" cy="258.343" r="5.427" style="fill:#01ff00;"/><circle cx="204.927" cy="258.343" r="5.427" style="fill:#01ff00;"/><circle cx="221.209" cy="258.343" r="5.427" style="fill:#01ff00;"/><circle cx="237.491" cy="258.343" r="5.427" style="fill:#01ff00;"/><circle cx="253.773" cy="258.343" r="5.427" style="fill:#01ff00;"/><circle cx="270.055" cy="258.343" r="5.427" style="fill:#01ff00;"/><circle cx="286.336" cy="258.343" r="5.427" style="fill:#01ff00;"/><circle cx="302.618" cy="258.343" r="5.427" style="fill:#01ff00;"/><circle cx="128.11" cy="187.789" r="21.292" style="fill:#01ff00;stroke:#fff;stroke-width:3px;"/><circle cx="300.948" cy="187.789" r="21.292" style="fill:#01ff00;stroke:#fff;stroke-width:3px;"/><path d="M180.522,179.439l65.701,-0c2.945,-0 5.628,1.691 6.899,4.347l17.731,37.06c2.428,5.076 -1.272,10.948 -6.899,10.948l-96.139,0c-5.248,0 -8.936,-5.164 -7.234,-10.128l12.707,-37.06c1.06,-3.091 3.967,-5.167 7.234,-5.167l0,-0Z" style="fill:#01ff00;fill-rule:nonzero;stroke:#fffefe;stroke-width:3px;"/></g><rect x="155.568" y="56.606" width="96.417" height="2"/><rect x="155.568" y="74.606" width="96.417" height="2"/><rect x="155.568" y="92.606" width="96.417" height="2"/></svg>