<?xml version="1.0" encoding="UTF-8" standalone="no"?><!DOCTYPE svg PUBLIC "-//W3C//DTD SVG 1.1//EN" "http://www.w3.org/Graphics/SVG/1.1/DTD/svg11.dtd"><svg width="100%" height="100%" viewBox="0 0 827 574" version="1.1" xmlns="http://www.w3.org/2000/svg" xmlnsXlink="http://www.w3.org/1999/xlink" xmlSpace="preserve" xmlnsSerif="http://www.serif.com/" style="fill-rule:evenodd;clip-rule:evenodd;stroke-linejoin:round;stroke-miterlimit:2;"><circle id="b8f08c5c-b476-40dd-b664-770adaae3509" cx="93.108" cy="55.964" r="4.354" style="fill:#fff;"/><circle id="eee44b09-a27a-4be3-8c5b-6b6370df12ff" cx="109.633" cy="55.964" r="4.354" style="fill:#fff;"/><circle id="a2d5f093-6500-400f-8de1-66712a079cc1" cx="126.158" cy="55.964" r="4.354" style="fill:#fff;"/><rect id="e14e0169-ef8c-4de3-8e3e-1fb1636d9038" x="82.529" y="66.193" width="552.899" height="3.073" style="fill:#fff;"/><rect id="ffd44901-e4e1-4980-b03e-373b3661f4a7" x="0.271" y="0.36" width="635.631" height="407.086" style="fill:#c5c5c5;stroke:#000;stroke-width:4px;"/><rect id="e89f9aca-511f-49ec-bc12-8613d3bd0166" x="0" y="0" width="635.631" height="27.004" style="fill:#11af37;stroke:#000;stroke-width:4px;"/><rect id="ad9dc5de-4949-4eac-9eb5-22ff577a9f6a" x="18.972" y="48.785" width="599.28" height="155.185" style="fill:#fff;"/><rect id="b859c105-7eee-4028-bc04-8285f6faca7e" x="19.351" y="229.471" width="599.28" height="155.185" style="fill:#fff;"/><g id="aa41527c-9c03-4708-86c5-0d027f971362"><rect id="b2d77c21-275f-42a7-94e0-5b816ba20a4e" x="221.34" y="83.115" width="324.331" height="14.455" style="fill:#c5c5c5;"/><rect id="b25a2924-64e6-4438-87d6-1fb43933af96" x="221.34" y="119.252" width="115.639" height="14.455" style="fill:#c5c5c5;"/><rect id="b8fe27c9-e561-42fa-9287-e7ff86698f34" x="221.34" y="155.389" width="230.375" height="14.455" style="fill:#c5c5c5;"/></g><path id="a368706a-11d6-41a2-bd00-6a6054248d43-440" d="M196.947,306.269c0.017,10.523 -3.047,20.824 -8.813,29.627c-1.208,1.857 -2.533,3.635 -3.965,5.325c-3.359,3.979 -7.271,7.455 -11.617,10.322c-1.182,0.783 -2.397,1.517 -3.645,2.2c-6.496,3.593 -13.666,5.801 -21.057,6.485c-1.68,0.164 -3.388,0.242 -5.111,0.242c-4.723,0.005 -9.425,-0.61 -13.988,-1.829c-2.586,-0.68 -5.116,-1.558 -7.567,-2.627c-1.253,-0.541 -2.477,-1.13 -3.673,-1.765c-2.877,-1.511 -5.61,-3.281 -8.165,-5.289c-1.189,-0.925 -2.335,-1.901 -3.438,-2.926c-11.064,-10.252 -17.361,-24.672 -17.361,-39.756c0,-29.733 24.467,-54.2 54.2,-54.2c29.73,0 54.196,24.462 54.2,54.192l0,-0.001Z" style="fill:#11af37;fill-rule:nonzero;stroke:#000;stroke-width:3px;"/><g id="a0fe7a2e-49bf-4761-b17e-3d52136366c5"><rect id="a077c903-9ff8-47f6-8a24-46120c36a494" x="139.42" y="280.966" width="6.645" height="50.592" style="fill:#fff;"/><rect id="a4f09271-2c50-4e11-a9a3-c26018ed4477" x="117.446" y="302.94" width="50.592" height="6.645" style="fill:#fff;"/></g><g id="bd7f0843-9709-4a5c-8b0e-26656563f0b3"><rect id="e4567469-258f-4b3a-88b2-7a234fbc5498" x="213.209" y="263.801" width="324.331" height="14.455" style="fill:#c5c5c5;"/><rect id="b26a9710-740f-4201-9a9a-df254658921a" x="213.209" y="299.938" width="115.639" height="14.455" style="fill:#c5c5c5;"/><rect id="a1758efc-04f7-4da1-846b-fd169401f4c2" x="213.209" y="336.075" width="230.375" height="14.455" style="fill:#c5c5c5;"/></g><g><circle id="f2fdcd7e-077f-47c5-987d-3f56ec08fcb2" cx="42.039" cy="13.433" r="4.467" style="fill:#fff;"/><circle id="bb8af87f-8865-4134-a554-08faac1a89d0" cx="58.995" cy="13.433" r="4.467" style="fill:#fff;"/><circle id="bd4c0ca0-b96c-4f92-a965-84f83cdee98a" cx="25.039" cy="13.433" r="4.467" style="fill:#fff;"/><path d="M175.238,169.971c-4.738,-2.497 -9.683,-4.578 -14.78,-6.22l-0.65,-7.19l-26.36,-2.84l-3.35,9.19l-9.46,3.55c-0.339,0.129 -0.661,0.296 -0.96,0.5l-0.01,0c-1.067,0.721 -1.791,1.85 -2,3.12c-0.101,0.625 -0.077,1.264 0.07,1.88l0.5,2.05c0.72,0.43 1.46,0.84 2.2,1.23l0.47,0.24c1.08,0.56 2.18,1.09 3.31,1.58c0.23,0.1 0.48,0.2 0.71,0.3c0.02,0.01 0.03,0.01 0.05,0.02c0.53,0.22 1.06,0.43 1.6,0.63c1.774,0.678 3.583,1.258 5.42,1.74c4.688,1.25 9.519,1.882 14.37,1.88c1.77,0 3.52,-0.08 5.25,-0.25c3.953,-0.365 7.855,-1.153 11.64,-2.35c0.01,0 0.02,-0.01 0.03,-0.01c2.391,-0.762 4.726,-1.687 6.99,-2.77c0.01,-0.01 0.03,-0.01 0.04,-0.02c0.51,-0.24 1,-0.5 1.5,-0.75l0.24,-0.12c0.4,-0.21 0.8,-0.42 1.2,-0.64c1,-0.55 1.98,-1.13 2.95,-1.75c0.27,-0.16 0.53,-0.33 0.8,-0.51c0.38,-0.25 0.76,-0.51 1.13,-0.78c-0.93,-0.6 -1.9,-1.17 -2.9,-1.71Z" style="fill:#3f3d56;fill-rule:nonzero;"/><path d="M125.768,174.401l-1.65,-7.45l-4.31,0c-0.043,0.001 -0.087,0.004 -0.13,0.01l-0.01,0c-1.549,0.131 -3.041,0.647 -4.34,1.5c-0.881,0.563 -1.665,1.265 -2.32,2.08c1.28,0.97 2.61,1.87 3.98,2.73l0.06,0.03c0.39,0.24 0.79,0.48 1.19,0.71c0.72,0.43 1.46,0.84 2.2,1.23l0.47,0.24c1.08,0.56 2.18,1.09 3.31,1.58c0.23,0.1 0.48,0.2 0.71,0.3c0.02,0.01 0.03,0.01 0.05,0.02c0.53,0.22 1.06,0.43 1.6,0.63l-0.81,-3.61Z" style="fill:#3f3d56;fill-rule:nonzero;"/><circle cx="145.594" cy="130.191" r="18.985" style="fill:#a0616a;"/><path d="M132.848,120.944c1.965,2.326 5.291,2.982 8.359,3.251c7.172,0.396 14.366,-0.191 21.38,-1.746c0.434,4.212 -0.751,8.754 1.73,12.219c1.163,-4.195 1.839,-8.51 2.016,-12.859c0.185,-1.866 -0.059,-3.75 -0.713,-5.508c-0.712,-1.794 -2.39,-3.031 -4.315,-3.181c1.414,-1.073 3.071,-1.781 4.824,-2.062l-6.028,-3.03l1.548,-1.589l-10.913,-0.668l3.161,-2.008c-4.758,-0.653 -9.571,-0.805 -14.36,-0.453c-2.224,0.164 -4.549,0.477 -6.351,1.765c-1.802,1.289 -2.843,3.85 -1.724,5.742c-2.845,0.467 -5.252,2.377 -6.353,5.041c-0.686,2.084 -0.852,4.305 -0.483,6.468c0.411,3.471 1.218,6.884 2.405,10.172l5.817,-11.554Z" style="fill:#2f2e41;fill-rule:nonzero;"/><path d="M198.978,109.611c-7.775,-22.335 -28.963,-37.395 -52.613,-37.395c-30.561,0 -55.709,25.148 -55.709,55.709c0,12.562 4.249,24.762 12.052,34.606c0.5,0.63 1.02,1.26 1.55,1.87c0.04,0.04 0.07,0.08 0.11,0.12c1.304,1.502 2.689,2.931 4.15,4.28c0.38,0.35 0.78,0.71 1.18,1.05c0.76,0.68 1.54,1.33 2.35,1.95c0.32,0.25 0.63,0.5 0.96,0.74c1.28,0.97 2.61,1.87 3.98,2.73l0.06,0.03c0.39,0.24 0.79,0.48 1.19,0.71c0.72,0.43 1.46,0.84 2.2,1.23l0.47,0.24c1.08,0.56 2.18,1.09 3.31,1.58c0.23,0.1 0.48,0.2 0.71,0.3c0.02,0.01 0.03,0.01 0.05,0.02c0.53,0.22 1.06,0.43 1.6,0.63c1.774,0.678 3.583,1.258 5.42,1.74c4.688,1.25 9.519,1.882 14.37,1.88c1.77,0 3.52,-0.08 5.25,-0.25c3.953,-0.365 7.855,-1.153 11.64,-2.35c0.01,0 0.02,-0.01 0.03,-0.01c2.391,-0.762 4.727,-1.687 6.99,-2.77c0.01,-0.01 0.03,-0.01 0.04,-0.02c0.51,-0.24 1,-0.5 1.5,-0.75l0.24,-0.12c0.4,-0.21 0.8,-0.42 1.2,-0.64c1,-0.55 1.98,-1.13 2.95,-1.75c0.27,-0.16 0.53,-0.33 0.8,-0.51c0.38,-0.25 0.76,-0.51 1.13,-0.78c0.49,-0.34 0.98,-0.69 1.46,-1.05c0.15,-0.11 0.31,-0.22 0.46,-0.34c19.169,-14.55 26.837,-39.954 18.92,-62.68Zm-20.76,60.25c-0.33,0.26 -0.67,0.51 -1.01,0.74c-0.33,0.25 -0.66,0.49 -1,0.71c-0.29,0.21 -0.58,0.41 -0.88,0.6l-0.09,0.06c-0.22,0.15 -0.44,0.29 -0.66,0.43c-0.83,0.52 -1.67,1.02 -2.52,1.5c-0.09,0.05 -0.18,0.1 -0.27,0.15c-0.38,0.21 -0.76,0.41 -1.14,0.61c-0.05,0.03 -0.11,0.05 -0.16,0.08l-0.06,0.03c-0.48,0.25 -0.97,0.49 -1.46,0.72c-1.891,0.911 -3.838,1.699 -5.83,2.36c-0.26,0.09 -0.52,0.18 -0.78,0.26c-3.582,1.14 -7.277,1.891 -11.02,2.24c-1.64,0.15 -3.3,0.23 -4.97,0.23c-4.589,0.01 -9.158,-0.589 -13.59,-1.78c-2.274,-0.593 -4.503,-1.349 -6.67,-2.26c-0.11,-0.05 -0.23,-0.09 -0.34,-0.14c-0.12,-0.05 -0.23,-0.09 -0.34,-0.14c-0.12,-0.05 -0.23,-0.1 -0.35,-0.16c-0.94,-0.41 -1.87,-0.86 -2.78,-1.33l-0.44,-0.23c-1.11,-0.58 -2.2,-1.2 -3.26,-1.86c-0.31,-0.19 -0.63,-0.39 -0.93,-0.6c-0.08,-0.05 -0.15,-0.1 -0.23,-0.15c-0.71,-0.47 -1.42,-0.96 -2.11,-1.47c-0.47,-0.35 -0.94,-0.7 -1.4,-1.06c-0.77,-0.58 -1.51,-1.2 -2.23,-1.84c-0.38,-0.32 -0.75,-0.67 -1.11,-1c-1.418,-1.309 -2.76,-2.698 -4.02,-4.16c-0.42,-0.48 -0.83,-0.96 -1.22,-1.46c-0.089,-0.099 -0.172,-0.202 -0.25,-0.31c-7.373,-9.304 -11.388,-20.834 -11.388,-32.706c0,-28.888 23.771,-52.659 52.659,-52.659c28.888,-0 52.659,23.771 52.659,52.659c0,16.451 -7.709,31.986 -20.81,41.936Z" style="fill:#3f3d56;fill-rule:nonzero;"/><path d="M673.068,376.971c-7.774,-22.335 -28.963,-37.395 -52.613,-37.395c-30.561,0 -55.709,25.148 -55.709,55.709c0,12.562 4.249,24.762 12.052,34.606c0.5,0.63 1.02,1.26 1.55,1.87c0.04,0.04 0.07,0.08 0.11,0.12c1.304,1.502 2.689,2.931 4.15,4.28c0.38,0.35 0.78,0.71 1.18,1.05c0.76,0.68 1.54,1.33 2.35,1.95c1.582,1.247 3.231,2.405 4.94,3.47l0.06,0.03c1.11,0.69 2.24,1.33 3.39,1.94l0.47,0.24c1.08,0.56 2.18,1.09 3.31,1.58c0.23,0.1 0.48,0.2 0.71,0.3c0.02,0.01 0.03,0.01 0.05,0.02c2.283,0.95 4.629,1.741 7.02,2.37c4.688,1.25 9.519,1.882 14.37,1.88c1.77,0 3.52,-0.08 5.25,-0.25c3.953,-0.365 7.855,-1.153 11.64,-2.35c0.01,0 0.02,-0.01 0.03,-0.01c2.391,-0.761 4.726,-1.687 6.99,-2.77c0.01,-0.01 0.03,-0.01 0.04,-0.02c0.51,-0.24 1,-0.5 1.5,-0.75l0.24,-0.12c0.4,-0.21 0.8,-0.42 1.2,-0.64c1,-0.55 1.98,-1.13 2.95,-1.75c0.27,-0.16 0.53,-0.33 0.8,-0.51c0.88,-0.58 1.75,-1.2 2.59,-1.83c0.15,-0.11 0.31,-0.22 0.46,-0.34c19.169,-14.55 26.837,-39.954 18.92,-62.68Z" style="fill:#fff;fill-rule:nonzero;"/><circle id="ee9bd31a-9b73-4888-9087-fea26d3b2b97" cx="638.842" cy="409.897" r="8.349" style="fill:#2f2e41;"/><path id="e473f415-6540-4896-b89f-76a5ac7ad60a-441" d="M641.168,401.778c4.58,0 8.35,3.769 8.35,8.35c0,1.383 -0.344,2.744 -1,3.962c1.182,-1.48 1.826,-3.318 1.826,-5.211c0,-4.579 -3.768,-8.347 -8.347,-8.347c-3.065,0 -5.893,1.688 -7.347,4.386c1.58,-1.984 3.983,-3.142 6.519,-3.14l-0.001,0Z" style="fill:#2f2e41;fill-rule:nonzero;"/><circle id="f79ae9d5-f4b5-4dd5-badc-cc4d2f5593dd" cx="623.24" cy="385.353" r="24.526" style="fill:#2f2e41;"/><path id="f9880a76-ad0b-4c2a-99b0-b23c20a810bd-442" d="M603.991,370.136c8.731,-9.819 23.881,-10.966 33.99,-2.572c-0.2,-0.191 -0.4,-0.383 -0.607,-0.568c-4.497,-4.029 -10.327,-6.259 -16.365,-6.259c-13.455,0 -24.526,11.072 -24.526,24.526c0,6.969 2.97,13.618 8.161,18.268c0.046,0.042 0.093,0.083 0.14,0.125c0.208,0.185 0.422,0.36 0.635,0.537c-9.52,-9.057 -10.156,-24.237 -1.427,-34.057l-0.001,0Z" style="fill:#2f2e41;fill-rule:nonzero;"/><circle id="b01904a1-9532-4133-8cbd-470829617487" cx="623.032" cy="393.875" r="15.796" style="fill:#a0616a;"/><path d="M651.298,435.031l0,5.3c-0.97,0.62 -1.95,1.2 -2.95,1.75c-0.4,0.22 -0.8,0.43 -1.2,0.64l-0.24,0.12c-0.5,0.25 -0.99,0.51 -1.5,0.75c-0.01,0.01 -0.03,0.01 -0.04,0.02c-2.264,1.083 -4.599,2.009 -6.99,2.77c-0.01,0 -0.02,0.01 -0.03,0.01c-3.785,1.197 -7.687,1.985 -11.64,2.35c-1.73,0.17 -3.48,0.25 -5.25,0.25c-4.851,0.002 -9.682,-0.63 -14.37,-1.88c-2.391,-0.629 -4.737,-1.42 -7.02,-2.37c-0.02,-0.01 -0.03,-0.01 -0.05,-0.02c-0.23,-0.1 -0.48,-0.2 -0.71,-0.3c-1.13,-0.49 -2.23,-1.02 -3.31,-1.58l-0.47,-0.24c-1.15,-0.61 -2.28,-1.25 -3.39,-1.94l-0.06,-0.03c-1.709,-1.065 -3.358,-2.223 -4.94,-3.47c-0.81,-0.62 -1.59,-1.27 -2.35,-1.95c-0.4,-0.34 -0.8,-0.7 -1.18,-1.05c-1.461,-1.349 -2.846,-2.778 -4.15,-4.28c0.173,-1.041 0.427,-2.068 0.76,-3.07l0.01,-0.01c0.06,-0.171 0.13,-0.338 0.21,-0.5c0.055,-0.143 0.119,-0.284 0.19,-0.42c1.79,-3.35 5.03,-4.18 9.05,-4.36c2.27,-0.1 4.78,0.01 7.43,-0.02c1.4,-0.01 2.85,-0.06 4.3,-0.19c9.15,-0.83 7.49,-6.23 7.9,-9.14c0.41,-2.82 2.95,-0.38 3.12,-0.22l0.01,0.01c5.177,2.423 10.907,3.428 16.6,2.91c0.98,-0.12 1.96,-0.19 2.94,-0.22c2.58,-0.03 2.02,0.71 1.13,1.32c-0.432,0.284 -0.883,0.538 -1.35,0.76c-0.467,0.222 -0.41,2.5 -0.83,6.24c-0.4,3.58 6.46,5.26 7.03,5.39c0.012,0.008 0.026,0.012 0.04,0.01c2.505,-0.649 5.143,-0.58 7.61,0.2l0.01,0c2.862,1.052 5.003,3.487 5.68,6.46Z" style="fill:#11af37;fill-rule:nonzero;stroke:#000;stroke-width:2px;"/><path d="M600.168,441.461c0,0.74 -0.02,1.45 -0.05,2.12c-0.01,0.4 -0.03,0.79 -0.05,1.16c-0.02,-0.01 -0.03,-0.01 -0.05,-0.02c-0.23,-0.1 -0.48,-0.2 -0.71,-0.3c-1.13,-0.49 -2.23,-1.02 -3.31,-1.58l-0.47,-0.24c-1.15,-0.61 -2.28,-1.25 -3.39,-1.94c0.03,-0.35 0.08,-0.7 0.13,-1.05c0.11,-0.77 0.2,-1.55 0.26,-2.32c0.393,-5.409 -0.587,-10.831 -2.85,-15.76l0,-0.01c-0.2,-0.4 -0.32,-0.62 -0.32,-0.62c0,0 2.91,-2.5 7.06,0c0.265,0.156 0.499,0.359 0.69,0.6c2.5,2.95 3.18,12.87 3.06,19.96Z" style="fill:#2f2e41;fill-rule:nonzero;"/><path d="M645.578,440.101c-0.04,1.12 -0.1,2.29 -0.17,3.48l0,0.01c-0.01,0.01 -0.03,0.01 -0.04,0.02c-2.264,1.083 -4.599,2.009 -6.99,2.77c-0.01,0 -0.02,0.01 -0.03,0.01l-0.11,-2.81l-0.01,-0.37l-0.53,-13.68c-0.001,-0.035 -0.002,-0.07 -0.002,-0.105c0,-1.258 1.034,-2.293 2.292,-2.295l5.07,0c0.25,0 0.43,0.51 0.55,1.43l0,0.01c0.246,3.84 0.236,7.692 -0.03,11.53Z" style="fill:#2f2e41;fill-rule:nonzero;"/><path id="a05c59bd-0311-408b-a800-ed606f18fbbf-443" d="M609.522,374.13l0,15.8l3.658,0l4.655,-4.988l-0.623,4.988l16.17,0l-1,-4.988l2,4.988l2.578,0l0,-15.8l-27.438,0Z" style="fill:#2f2e41;fill-rule:nonzero;"/><ellipse id="af122121-1c1b-4817-a566-2298b147ce18" cx="607.028" cy="390.55" rx="1.247" ry="2.286" style="fill:#a0616a;"/><ellipse id="bec83a12-853e-4dd5-94d0-e2c2a5b21156" cx="639.037" cy="390.55" rx="1.247" ry="2.286" style="fill:#a0616a;"/><path d="M654.688,437.991c-0.84,0.63 -1.71,1.25 -2.59,1.83c-0.27,0.18 -0.53,0.35 -0.8,0.51c-0.97,0.62 -1.95,1.2 -2.95,1.75c-0.4,0.22 -0.8,0.43 -1.2,0.64l0,-11.02c0,0 1.6,1.28 4.15,3.41c0.32,0.27 0.65,0.55 1,0.85c0.74,0.62 1.54,1.3 2.39,2.03Z" style="fill:#11af37;fill-rule:nonzero;stroke:#11af37;stroke-width:1px;"/><path d="M673.068,376.971c-7.774,-22.335 -28.963,-37.395 -52.613,-37.395c-30.561,0 -55.709,25.148 -55.709,55.709c0,12.562 4.249,24.762 12.052,34.606c0.5,0.63 1.02,1.26 1.55,1.87c0.04,0.04 0.07,0.08 0.11,0.12c1.304,1.502 2.689,2.931 4.15,4.28c0.38,0.35 0.78,0.71 1.18,1.05c0.76,0.68 1.54,1.33 2.35,1.95c1.582,1.247 3.231,2.405 4.94,3.47l0.06,0.03c1.11,0.69 2.24,1.33 3.39,1.94l0.47,0.24c1.08,0.56 2.18,1.09 3.31,1.58c0.23,0.1 0.48,0.2 0.71,0.3c0.02,0.01 0.03,0.01 0.05,0.02c2.283,0.95 4.629,1.741 7.02,2.37c4.688,1.25 9.519,1.882 14.37,1.88c1.77,0 3.52,-0.08 5.25,-0.25c3.953,-0.365 7.855,-1.153 11.64,-2.35c0.01,0 0.02,-0.01 0.03,-0.01c2.391,-0.761 4.726,-1.687 6.99,-2.77c0.01,-0.01 0.03,-0.01 0.04,-0.02c0.51,-0.24 1,-0.5 1.5,-0.75l0.24,-0.12c0.4,-0.21 0.8,-0.42 1.2,-0.64c1,-0.55 1.98,-1.13 2.95,-1.75c0.27,-0.16 0.53,-0.33 0.8,-0.51c0.88,-0.58 1.75,-1.2 2.59,-1.83c0.15,-0.11 0.31,-0.22 0.46,-0.34c19.169,-14.55 26.837,-39.954 18.92,-62.68Zm-20.76,60.25c-0.33,0.26 -0.67,0.51 -1.01,0.74c-0.33,0.25 -0.66,0.49 -1,0.71c-0.29,0.21 -0.58,0.41 -0.88,0.6c-0.25,0.17 -0.5,0.33 -0.75,0.49c-0.83,0.52 -1.67,1.02 -2.52,1.5c-0.09,0.05 -0.18,0.1 -0.27,0.15c-0.38,0.21 -0.76,0.41 -1.14,0.61c-0.05,0.03 -0.11,0.05 -0.16,0.08l-0.06,0.03c-0.48,0.25 -0.97,0.49 -1.46,0.72c-1.891,0.911 -3.838,1.699 -5.83,2.36c-0.26,0.09 -0.52,0.18 -0.78,0.26c-3.582,1.14 -7.277,1.891 -11.02,2.24c-1.64,0.15 -3.3,0.23 -4.97,0.23c-4.589,0.01 -9.159,-0.589 -13.59,-1.78c-2.274,-0.594 -4.503,-1.349 -6.67,-2.26c-0.23,-0.09 -0.46,-0.19 -0.68,-0.28c-0.12,-0.05 -0.23,-0.1 -0.35,-0.16c-0.94,-0.41 -1.87,-0.86 -2.78,-1.33l-0.44,-0.23c-1.11,-0.58 -2.2,-1.2 -3.26,-1.86c-0.39,-0.24 -0.78,-0.49 -1.16,-0.75c-1.2,-0.79 -2.37,-1.64 -3.51,-2.53c-0.77,-0.58 -1.51,-1.2 -2.23,-1.84c-0.38,-0.32 -0.75,-0.67 -1.11,-1c-1.418,-1.309 -2.76,-2.698 -4.02,-4.16c-0.42,-0.48 -0.83,-0.96 -1.22,-1.46c-0.089,-0.099 -0.172,-0.202 -0.25,-0.31c-7.374,-9.304 -11.388,-20.834 -11.388,-32.706c0,-28.888 23.771,-52.659 52.659,-52.659c28.888,-0 52.659,23.771 52.659,52.659c0,16.451 -7.709,31.986 -20.81,41.936Z" style="fill:#3f3d56;fill-rule:nonzero;"/><path d="M669.931,372.603c3.969,-1.439 6.628,-5.231 6.628,-9.453c0,-1.768 -0.466,-3.505 -1.351,-5.035l23.359,-27.043l-18.414,-2.397l-19.359,26.048c-2.798,1.875 -4.481,5.03 -4.481,8.398c0,5.546 4.564,10.11 10.111,10.11c1.197,0 2.384,-0.213 3.507,-0.628Z" style="fill:#a0616a;fill-rule:nonzero;"/><path d="M801.595,378.318c1.608,-1.834 2.495,-4.191 2.495,-6.63c0,-3.518 -1.846,-6.789 -4.857,-8.608l7.425,-34.955l-17.288,6.779l-4.401,32.155c-0.742,1.435 -1.129,3.027 -1.129,4.643c0,5.546 4.564,10.11 10.11,10.11c2.933,0 5.726,-1.277 7.645,-3.494Z" style="fill:#a0616a;fill-rule:nonzero;"/><path d="M717.931,560.49l-12.26,-0.001l-5.832,-47.288l18.094,0.001l-0.002,47.288Z" style="fill:#a0616a;fill-rule:nonzero;"/><path d="M721.058,572.374l-39.531,-0.001l0,-0.501c0,-8.44 6.946,-15.386 15.386,-15.386l24.145,0.001l0,15.887Z" style="fill:#2f2e41;fill-rule:nonzero;"/><path d="M777.931,560.49l-12.26,-0.001l-5.832,-47.288l18.094,0.001l-0.002,47.288Z" style="fill:#a0616a;fill-rule:nonzero;"/><path d="M781.058,572.374l-39.531,-0.001l0,-0.501c0,-8.44 6.946,-15.386 15.386,-15.386l24.145,0.001l0,15.887Z" style="fill:#2f2e41;fill-rule:nonzero;"/><path d="M719.208,535.798l-17.354,-0.695c-2.448,-0.105 -4.385,-2.185 -4.318,-4.633l4.889,-160.379l0.32,-0.116c30.416,-11.003 55.578,-10.17 76.926,2.54l0.238,0.143l2.929,156.202c0.001,0.029 0.001,0.057 0.001,0.086c0,2.468 -2.031,4.499 -4.499,4.499l-14.635,0c-2.141,-0.004 -3.999,-1.532 -4.416,-3.632l-19.935,-101.409c-0.137,-0.701 -0.757,-1.211 -1.471,-1.211c-0.756,0 -1.399,0.571 -1.489,1.321l-12.539,103.33c-0.284,2.243 -2.208,3.946 -4.469,3.957c-0.059,0 -0.118,-0.001 -0.178,-0.003Z" style="fill:#2f2e41;fill-rule:nonzero;"/><circle cx="736.092" cy="204.882" r="24.561" style="fill:#a0616a;"/><path d="M678.232,353.081c-0.852,-0.336 -1.582,-0.924 -2.091,-1.685l-4.746,-7.102c-1.046,-1.574 -0.999,-3.645 0.119,-5.169l19.132,-25.968l11.986,-57.511c2.16,-5.563 7.545,-9.249 13.513,-9.249c7.953,0 14.497,6.544 14.497,14.497c0,1.804 -0.337,3.592 -0.993,5.272l-5.665,36.601c-1.717,11.106 -7.414,21.218 -16.024,28.441l-25.185,21.135c-0.979,0.82 -2.263,1.187 -3.528,1.007c-0.348,-0.049 -0.689,-0.139 -1.015,-0.269Z" style="fill:#3f3d56;fill-rule:nonzero;"/><path d="M800.547,355.687c-0.862,0.311 -1.798,0.351 -2.683,0.116l-8.255,-2.195c-1.825,-0.49 -3.158,-2.077 -3.326,-3.959l-2.797,-32.133l-29.001,-51.089c-0.587,-1.599 -0.887,-3.289 -0.887,-4.992c0,-7.953 6.544,-14.497 14.496,-14.497c6.079,0 11.541,3.823 13.621,9.535l19.931,31.217c6.049,9.471 8.454,20.826 6.764,31.936l-4.941,32.504c-0.193,1.264 -0.914,2.387 -1.982,3.088c-0.294,0.193 -0.61,0.35 -0.94,0.469Z" style="fill:#3f3d56;fill-rule:nonzero;"/><path d="M709.227,248.499c8.54,-9.364 20.889,-14.357 33.537,-13.559c0.411,0.025 0.82,0.054 1.227,0.086l0.001,0c11.975,0.947 22.976,7.019 30.16,16.646c7.303,9.762 10.048,22.217 7.524,34.145c-4.762,22.542 -3.556,45.942 3.497,67.876l6.589,20.459c0.144,0.446 0.217,0.911 0.217,1.38c0,2.377 -1.885,4.365 -4.259,4.492l-33.685,1.811l-8.62,-14.89l0,15.353l-40.941,2.201c-0.082,0.005 -0.163,0.007 -0.243,0.007c-2.468,-0.001 -4.499,-2.032 -4.499,-4.5c0,-0.12 0.005,-0.241 0.015,-0.361l4.627,-57.382l-5.804,-38.973c-1.902,-12.604 2.022,-25.414 10.657,-34.791Z" style="fill:#3f3d56;fill-rule:nonzero;"/><path d="M753.162,228.329c-2.274,1.309 -11.263,2.176 -11.903,-0.368l-0.014,-0.056c-0.445,-1.864 -0.075,-3.811 0.053,-5.723c0.128,-1.912 -0.06,-4.013 -1.362,-5.419c-2.428,-2.622 -6.748,-1.232 -10.259,-1.895c-4.234,-0.945 -7.139,-4.932 -6.74,-9.253c0.05,-0.397 0.129,-0.795 0.217,-1.193c0.101,-0.467 0.153,-0.943 0.153,-1.421c0,-3.66 -3.013,-6.673 -6.673,-6.673c-0.136,0 -0.272,0.005 -0.407,0.013c-3.548,0.203 -7.378,1.278 -10.314,-1.35c-2.27,-2.033 -2.824,-7.323 -1.826,-10.202c1.676,-4.838 12.414,-7.371 17.102,-8.763c11.735,-3.391 24.394,-1.314 34.43,5.649c2.961,2.087 5.727,4.71 6.989,8.106c1.262,3.396 0.653,7.68 -2.193,9.922c4.484,4.748 6.105,11.546 4.246,17.806c-1.405,4.53 -8.114,8.872 -11.499,10.82Z" style="fill:#2f2e41;fill-rule:nonzero;"/></g><path d="M825.681,573.951l-213,0c-0.549,0 -1,-0.451 -1,-1c0,-0.548 0.451,-1 1,-1l213,0c0.549,0 1,0.452 1,1c0,0.549 -0.451,1 -1,1Z" style="fill:#ccc;fill-rule:nonzero;"/></svg>